<svg class="h-6 w-auto " width="80" height="80" viewBox="0 0 170 170" fill="black" xmlns="http://www.w3.org/2000/svg"><path d="M0.0910702 16.6982C0.0910702 7.47605 7.11807 0 15.7863 0H154.305C162.973 0 170 7.47606 170 16.6982V25.6885C170 34.9107 162.973 42.3867 154.305 42.3867H15.7863C7.11805 42.3867 0.0910702 34.9107 0.0910702 25.6885V16.6982Z"></path><path d="M0 144.312C0 135.089 7.027 127.613 15.6952 127.613H154.214C162.882 127.613 169.909 135.089 169.909 144.312V153.302C169.909 162.524 162.882 170 154.214 170H15.6952C7.02698 170 0 162.524 0 153.302V144.312Z"></path><path d="M0 81.2647C0 72.0425 7.02699 64.5665 15.6952 64.5665H69.059C77.7273 64.5665 84.7543 72.0425 84.7543 81.2647V90.1704C84.7543 99.3926 77.7273 106.869 69.059 106.869H15.6952C7.027 106.869 0 99.3926 0 90.1704V81.2647Z"></path></svg>